<?xml version="1.0" encoding="UTF-8" standalone="no"?>
<!DOCTYPE svg PUBLIC "-//W3C//DTD SVG 20010904//EN" "http://www.w3.org/TR/2001/REC-SVG-20010904/DTD/svg10.dtd">

<svg xmlns="http://www.w3.org/2000/svg" width="200" height="200" viewBox="-50 -50 300 300">
   <g id="emblem">
      <path id="emblemFill" fill="#333" d="M 2.00,28.00
           C 30.78,11.30 64.27,1.74 100.00,1.74
             135.70,1.74 169.17,11.28 198.00,27.96
             198.00,27.97 198.00,27.99 198.00,28.00
             198.00,100.52 158.61,163.84 100.07,197.74
             41.46,163.91 2.01,100.56 2.00,28.00
             2.00,28.00 2.00,28.00 2.00,28.00 Z" />
      <path transform="scale(0.93750096)" fill="#0078d7"
         d="M 106.66602 1.8554688 C 68.554055 1.8554688 32.831448 12.053872 2.1328125 29.867188 C 2.1365498 56.98473 7.3128302 82.892196 16.714844 106.66602 L 106.66602 106.66602 L 106.66602 1.8554688 z "
         id="Imported Path #1" />
      <path transform="scale(0.93750096)" fill="#0078d7"
         d="M 106.66602 106.66602 L 106.66602 210.87695 C 106.69154 210.8917 106.71665 210.90714 106.74219 210.92188 C 147.29551 187.4378 179.2247 150.71433 196.63281 106.66602 L 106.66602 106.66602 z "
         id="emblemBottomRight" />
      <path id="emblemBorder" fill="none" stroke-width="10" stroke="#999" d="M 2.00,28.00
           C 30.78,11.30 64.27,1.74 100.00,1.74
             135.70,1.74 169.17,11.28 198.00,27.96
             198.00,27.97 198.00,27.99 198.00,28.00
             198.00,100.52 158.61,163.84 100.07,197.74
             41.46,163.91 2.01,100.56 2.00,28.00
             2.00,28.00 2.00,28.00 2.00,28.00 Z" />
   </g>
</svg>